<svg width="80" height="57" viewBox="0 0 80 57" fill="none" xmlns="http://www.w3.org/2000/svg">
<g clip-path="url(#clip0)">
<path d="M39.981 23.2908C46.4654 27.0164 52.9182 30.7694 59.4005 34.4908C58.6174 35.0037 57.7879 35.4491 56.9815 35.9241C51.3541 39.2275 45.6106 42.4296 39.9747 45.7478C33.493 42.0089 27.0122 38.2692 20.532 34.5288C26.9995 30.761 33.4987 27.0333 39.981 23.2908Z" fill="black"/>
<path fill-rule="evenodd" clip-rule="evenodd" d="M39.4343 22.9552C33.0469 26.6449 26.6132 30.3916 20.2258 34.0264V11.9409C20.2258 11.9135 20.2258 11.8881 20.2448 11.8839C26.6364 15.5709 33.0328 19.2612 39.4343 22.9552ZM59.7234 11.8839C59.7657 19.2211 59.7234 26.6385 59.7424 34.0074C59.6285 34.0285 59.5482 33.9251 59.4617 33.8765C53.1419 30.3261 46.8601 26.5393 40.5403 22.9742C46.9192 19.2633 53.334 15.5863 59.7234 11.8839Z" fill="#237FB3" stroke="white" stroke-width="0.0829033"/>
<path fill-rule="evenodd" clip-rule="evenodd" d="M39.981 23.2908C46.4654 27.0164 52.9182 30.7694 59.4005 34.4908C58.6174 35.0037 57.7879 35.4491 56.9815 35.9241C51.3541 39.2275 45.6106 42.4296 39.9747 45.7478C33.493 42.0089 27.0122 38.2692 20.532 34.5288C26.9995 30.761 33.4987 27.0333 39.981 23.2908Z" fill="#25447D" stroke="white" stroke-width="0.0829033"/>
<path fill-rule="evenodd" clip-rule="evenodd" d="M39.4047 46.0645C33.0384 49.769 26.5941 53.4967 20.2216 57.1336V35.048C20.2216 35.0227 20.2216 34.9974 20.2406 34.9932C26.6237 38.6871 33.0116 42.3775 39.4047 46.0645ZM59.698 34.9932C59.7403 42.3304 59.698 49.7478 59.717 57.1167C59.6031 57.1379 59.5228 57.0323 59.4384 56.9859C53.106 53.4355 46.8347 49.6486 40.5149 46.0813C46.9002 42.3705 53.3149 38.6956 59.698 34.9932Z" fill="#237FB3" stroke="white" stroke-width="0.0829033"/>
<path fill-rule="evenodd" clip-rule="evenodd" d="M79.5799 46.056C73.2137 49.7605 66.7694 53.4882 60.3989 57.1273V35.0417C60.3989 35.0143 60.3989 34.989 60.4158 34.9847C66.8018 38.6787 73.1898 42.3691 79.5799 46.056ZM19.6686 35.0016C19.7129 42.3388 19.6686 49.7542 19.6876 57.123C19.5736 57.1463 19.4934 57.0407 19.409 56.9943C13.0765 53.4439 6.80526 49.6571 0.485474 46.0898C6.86648 42.379 13.2812 38.7019 19.6686 35.0016Z" fill="#23B3CF" stroke="white" stroke-width="0.0829033"/>
<path fill-rule="evenodd" clip-rule="evenodd" d="M39.9809 0.21106C46.4654 3.93666 52.9181 7.69181 59.4004 11.4132C58.6173 11.9261 57.7878 12.3715 56.9814 12.8443C51.354 16.1499 45.6105 19.352 39.9746 22.6702C33.4929 18.9313 27.0121 15.1909 20.5319 11.4491C26.9994 7.68337 33.4986 3.95566 39.9809 0.21106ZM60.3609 34.3135C60.3609 26.837 60.3904 19.371 60.3777 11.8902C61.2221 12.3124 62.0157 12.8105 62.8284 13.2728C68.498 16.5003 74.1382 19.8818 79.8247 23.1114C79.8247 30.5942 79.7972 38.075 79.7994 45.5599C73.3107 41.8407 66.839 38.0665 60.3609 34.3135ZM19.677 34.3283C13.2158 38.0897 6.74403 41.8132 0.282827 45.581C0.227946 44.646 0.255387 43.7045 0.246943 42.7694C0.187841 36.2449 0.276495 29.6697 0.21106 23.1388C6.6843 19.3815 13.1573 15.6279 19.6306 11.8776C19.6749 19.3478 19.6643 26.8412 19.677 34.3283Z" fill="#93D5E0" stroke="white" stroke-width="0.0829033"/>
</g>
<defs>
<clipPath id="clip0">
<rect width="80" height="57.2033" fill="white"/>
</clipPath>
</defs>
</svg>
