<svg width="80" height="57" fill="none" xmlns="http://www.w3.org/2000/svg"><g clip-path="url(#clip0)"><path d="M39.981 23.29c6.484 3.726 12.937 7.48 19.42 11.2-.784.514-1.613.96-2.42 1.434-5.627 3.303-11.37 6.506-17.006 9.824-6.482-3.74-12.963-7.479-19.443-11.22C27 30.762 33.499 27.034 39.981 23.292z" fill="#000"/><path fill-rule="evenodd" clip-rule="evenodd" d="M39.434 22.955c-6.387 3.69-12.82 7.437-19.208 11.071V11.941c0-.027 0-.053.019-.057l19.19 11.071zm20.29-11.071c.042 7.337 0 14.755.018 22.123-.113.022-.194-.082-.28-.13-6.32-3.55-12.602-7.338-18.922-10.903 6.38-3.71 12.794-7.388 19.183-11.09z" fill="#237FB3" stroke="#fff" stroke-width=".083"/><path fill-rule="evenodd" clip-rule="evenodd" d="M39.981 23.29c6.484 3.726 12.937 7.48 19.42 11.2-.784.514-1.613.96-2.42 1.434-5.627 3.303-11.37 6.506-17.006 9.824-6.482-3.74-12.963-7.479-19.443-11.22C27 30.762 33.499 27.034 39.981 23.292z" fill="#25447D" stroke="#fff" stroke-width=".083"/><path fill-rule="evenodd" clip-rule="evenodd" d="M39.405 46.065a2652.153 2652.153 0 01-19.183 11.069V35.048c0-.025 0-.05.019-.055 6.383 3.694 12.77 7.384 19.164 11.072zm20.293-11.072c.042 7.337 0 14.755.019 22.124-.114.02-.194-.085-.279-.131-6.332-3.55-12.603-7.337-18.923-10.905 6.385-3.71 12.8-7.385 19.183-11.088z" fill="#237FB3" stroke="#fff" stroke-width=".083"/><path fill-rule="evenodd" clip-rule="evenodd" d="M79.58 46.056a2780.944 2780.944 0 01-19.181 11.071V35.042c0-.028 0-.053.017-.057 6.386 3.694 12.774 7.384 19.164 11.071zM19.669 35.002c.044 7.337 0 14.752.019 22.121-.114.023-.195-.082-.279-.129C13.077 53.444 6.805 49.657.485 46.09c6.381-3.711 12.796-7.388 19.184-11.088z" fill="#23B3CF" stroke="#fff" stroke-width=".083"/><path fill-rule="evenodd" clip-rule="evenodd" d="M39.98.211c6.485 3.726 12.938 7.48 19.42 11.202-.783.513-1.612.958-2.419 1.431-5.627 3.306-11.37 6.508-17.006 9.826-6.482-3.739-12.963-7.48-19.443-11.22C26.999 7.682 33.499 3.955 39.98.21zm20.38 34.102c0-7.476.03-14.942.018-22.423.844.422 1.638.92 2.45 1.383 5.67 3.227 11.31 6.609 16.997 9.838 0 7.483-.028 14.964-.026 22.449-6.488-3.72-12.96-7.494-19.438-11.247zm-40.683.015C13.216 38.09 6.744 41.813.283 45.581c-.055-.935-.028-1.877-.036-2.812-.06-6.524.03-13.1-.036-19.63 6.473-3.758 12.946-7.511 19.42-11.261.044 7.47.033 14.963.046 22.45z" fill="#93D5E0" stroke="#fff" stroke-width=".083"/></g><defs><clipPath id="clip0"><path fill="#fff" d="M0 0h80v57.203H0z"/></clipPath></defs></svg>